<svg width="317" height="339" viewBox="0 0 317 339" fill="none" xmlns="http://www.w3.org/2000/svg">
<g filter="url(#filter0_d)">
<rect x="6" y="3" width="305" height="327" rx="6" fill="#FA2356"/>
</g>
<mask id="mask0" mask-type="alpha" maskUnits="userSpaceOnUse" x="162" y="239" width="149" height="91">
<rect width="149" height="91" rx="6" transform="matrix(1 8.74228e-08 8.74228e-08 -1 162 330)" fill="#FFDC82"/>
</mask>
<g mask="url(#mask0)">
<path d="M167.92 336.098C190.113 292.109 212.839 311.275 246.011 290C279.182 268.725 306.726 256.776 326.286 265.613C363.138 282.261 360.549 320.795 339.064 363.383C317.578 405.971 270.287 426.999 233.436 410.35C196.584 393.702 145.728 380.087 167.92 336.098Z" fill="#FFC259"/>
</g>
<mask id="mask1" mask-type="alpha" maskUnits="userSpaceOnUse" x="6" y="3" width="161" height="79">
<rect width="161" height="79" rx="6" transform="matrix(-1 0 0 1 167 3)" fill="#FFDC82"/>
</mask>
<g mask="url(#mask1)">
<path d="M136.337 26.8277C103.227 67.9552 87.7898 48.4628 50.4449 62.1527C13.1 75.8425 -17.282 73.6891 -33.4645 58.789C-63.9516 30.7181 -50.9679 -9.96579 -18.9126 -49.7833C13.1427 -89.6009 63.8433 -99.1233 94.3303 -71.0524C124.817 -42.9814 169.447 -14.2998 136.337 26.8277Z" fill="#583BB6"/>
</g>
<defs>
<filter id="filter0_d" x="0" y="0" width="317" height="339" filterUnits="userSpaceOnUse" color-interpolation-filters="sRGB">
<feFlood flood-opacity="0" result="BackgroundImageFix"/>
<feColorMatrix in="SourceAlpha" type="matrix" values="0 0 0 0 0 0 0 0 0 0 0 0 0 0 0 0 0 0 127 0"/>
<feOffset dy="3"/>
<feGaussianBlur stdDeviation="3"/>
<feColorMatrix type="matrix" values="0 0 0 0 0 0 0 0 0 0 0 0 0 0 0 0 0 0 0.16 0"/>
<feBlend mode="normal" in2="BackgroundImageFix" result="effect1_dropShadow"/>
<feBlend mode="normal" in="SourceGraphic" in2="effect1_dropShadow" result="shape"/>
</filter>
</defs>
</svg>
