<svg xmlns="http://www.w3.org/2000/svg" viewBox="0 0 500 500"><g id="background-complete--inject-188"><rect y="382.4" width="500" height="0.25" style="fill:#ebebeb"></rect><rect x="52.46" y="391.92" width="21.21" height="0.25" style="fill:#ebebeb"></rect><rect x="171.14" y="389.21" width="84.97" height="0.25" style="fill:#ebebeb"></rect><rect x="67.67" y="401.21" width="38.11" height="0.25" style="fill:#ebebeb"></rect><rect x="406.71" y="399.53" width="43.19" height="0.25" style="fill:#ebebeb"></rect><rect x="391.47" y="399.53" width="11.97" height="0.25" style="fill:#ebebeb"></rect><rect x="347.89" y="395.31" width="23" height="0.25" style="fill:#ebebeb"></rect><rect x="287.89" y="395.31" width="48.44" height="0.25" style="fill:#ebebeb"></rect><path d="M237,337.8H43.91a5.71,5.71,0,0,1-5.7-5.71V60.66A5.71,5.71,0,0,1,43.91,55H237a5.71,5.71,0,0,1,5.71,5.71V332.09A5.71,5.71,0,0,1,237,337.8ZM43.91,55.2a5.46,5.46,0,0,0-5.45,5.46V332.09a5.46,5.46,0,0,0,5.45,5.46H237a5.47,5.47,0,0,0,5.46-5.46V60.66A5.47,5.47,0,0,0,237,55.2Z" style="fill:#ebebeb"></path><path d="M453.31,337.8H260.21a5.72,5.72,0,0,1-5.71-5.71V60.66A5.72,5.72,0,0,1,260.21,55h193.1A5.71,5.71,0,0,1,459,60.66V332.09A5.71,5.71,0,0,1,453.31,337.8ZM260.21,55.2a5.47,5.47,0,0,0-5.46,5.46V332.09a5.47,5.47,0,0,0,5.46,5.46h193.1a5.47,5.47,0,0,0,5.46-5.46V60.66a5.47,5.47,0,0,0-5.46-5.46Z" style="fill:#ebebeb"></path><rect x="53.61" y="241.42" width="33.76" height="140.98" transform="translate(140.99 623.82) rotate(180)" style="fill:#e6e6e6"></rect><polygon points="59.23 382.4 53.61 382.4 53.61 369.71 65.12 369.71 59.23 382.4" style="fill:#f0f0f0"></polygon><rect x="277.18" y="241.42" width="33.76" height="140.98" transform="translate(588.13 623.82) rotate(180)" style="fill:#e6e6e6"></rect><rect x="53.61" y="241.42" width="228.47" height="136.11" transform="translate(335.7 618.95) rotate(180)" style="fill:#f0f0f0"></rect><rect x="57.97" y="247.45" width="219.75" height="37.33" transform="translate(335.7 532.23) rotate(180)" style="fill:#e6e6e6"></rect><rect x="57.97" y="247.45" width="219.75" height="5.08" transform="translate(335.7 499.99) rotate(180)" style="fill:#e0e0e0"></rect><polygon points="276.47 382.4 282.09 382.4 282.09 369.71 270.57 369.71 276.47 382.4" style="fill:#f0f0f0"></polygon><rect x="57.97" y="290.81" width="219.75" height="37.33" transform="translate(335.7 618.95) rotate(180)" style="fill:#e6e6e6"></rect><rect x="57.97" y="290.81" width="219.75" height="5.08" transform="translate(335.7 586.71) rotate(180)" style="fill:#e0e0e0"></rect><rect x="57.97" y="334.17" width="219.75" height="37.33" transform="translate(335.7 705.66) rotate(180)" style="fill:#e6e6e6"></rect><rect x="57.97" y="334.17" width="219.75" height="5.08" transform="translate(335.7 673.42) rotate(180)" style="fill:#e0e0e0"></rect><polygon points="358.02 382.4 436.3 382.4 443.25 136.52 364.97 136.52 358.02 382.4" style="fill:#e6e6e6"></polygon><polygon points="355.63 382.4 433.91 382.4 440.86 136.52 362.58 136.52 355.63 382.4" style="fill:#f0f0f0"></polygon><polygon points="429.22 375.41 435.77 143.51 367.27 143.51 360.72 375.41 429.22 375.41" style="fill:#fafafa"></polygon><rect x="81.17" y="77.22" width="225.78" height="125.92" transform="translate(388.11 280.37) rotate(180)" style="fill:#f0f0f0"></rect><rect x="73.03" y="77.22" width="230.11" height="125.92" transform="translate(376.18 280.37) rotate(180)" style="fill:#f5f5f5"></rect><rect x="135.6" y="36.52" width="104.98" height="207.34" transform="translate(328.27 -47.91) rotate(90)" style="fill:#fff"></rect><circle cx="83.89" cy="228" r="7.78" style="fill:#f0f0f0"></circle><circle cx="96.44" cy="231.58" r="7.78" transform="translate(-151.1 272.24) rotate(-76.72)" style="fill:#e6e6e6"></circle><circle cx="107.33" cy="226.19" r="7.78" transform="translate(-137.47 278.69) rotate(-76.72)" style="fill:#f0f0f0"></circle><path d="M120.54,230.9s-.68,10.52-27,10.52-27-10.52-27-10.52Z" style="fill:#e6e6e6"></path></g><g id="Shadow--inject-188"><ellipse id="path--inject-188" cx="250" cy="416.24" rx="193.89" ry="11.32" style="fill:#f5f5f5"></ellipse></g><g id="Smartphone--inject-188"><path d="M377.26,416.24H272.94a12.73,12.73,0,0,1-12.78-13.3L271.8,102.52a14,14,0,0,1,13.81-13.3H389.93a12.74,12.74,0,0,1,12.78,13.3L391.07,402.94A14,14,0,0,1,377.26,416.24Z" style="fill:#263238"></path><path d="M261.24,120.27l-1,0,.7-17.85a17.48,17.48,0,0,1,17.3-16.66v1a16.48,16.48,0,0,0-16.3,15.7Z" style="fill:#407BFF"></path><rect x="285.33" y="85.72" width="8.5" height="1" style="fill:#407BFF"></rect><path d="M369.89,416.24H265.57a12.73,12.73,0,0,1-12.78-13.3l11.64-300.42a14,14,0,0,1,13.81-13.3H382.56a12.74,12.74,0,0,1,12.78,13.3L383.7,402.94A14,14,0,0,1,369.89,416.24Z" style="fill:#407BFF"></path><path d="M373.21,381.68H264.93a7.11,7.11,0,0,1-7.15-7.43l10.1-260.64a7.82,7.82,0,0,1,7.73-7.44H383.88a7.12,7.12,0,0,1,7.15,7.44l-10.1,260.64A7.81,7.81,0,0,1,373.21,381.68Z" style="fill:#fff;opacity:0.8"></path><polygon points="327.24 381.68 300.24 381.68 345.78 106.17 372.78 106.17 327.24 381.68" style="fill:#fff;opacity:0.4"></polygon><polygon points="295.49 381.68 281.99 381.68 327.53 106.17 341.03 106.17 295.49 381.68" style="fill:#fff;opacity:0.4"></polygon><path d="M344.61,301.12H291.37c-2.46,0-4.41-2.69-4.52-6.23l-1.51-49.43c-.12-4.07,2.22-7.6,5.05-7.6h60c2.83,0,4.9,3.53,4.47,7.6l-5.26,49.43C349.22,298.43,347.06,301.12,344.61,301.12Z" style="fill:#407BFF"></path><path d="M344.61,303H291.37c-3.51,0-6.25-3.47-6.39-8.05l-1.51-49.43a10.59,10.59,0,0,1,2.68-7.61,5.94,5.94,0,0,1,4.24-1.92h60a5.63,5.63,0,0,1,4.17,2,10.08,10.08,0,0,1,2.16,7.71l-5.26,49.43C351,299.59,348,303,344.61,303Zm-54.22-63.27a2.27,2.27,0,0,0-1.55.79,6.88,6.88,0,0,0-1.63,4.88l1.51,49.43c.07,2.44,1.26,4.42,2.65,4.42h53.24c1.27,0,2.84-1.83,3.13-4.56L353,245.26a6.4,6.4,0,0,0-1.22-4.8,1.85,1.85,0,0,0-1.39-.73Z" style="fill:#407BFF"></path><path d="M349.6,296.76h-.2a1.87,1.87,0,0,1-1.66-2.06l5.78-54.33c.9-8.49,6.25-14.89,12.44-14.89H370a1.87,1.87,0,1,1,0,3.74H366c-4.2,0-8,5.07-8.72,11.55l-5.78,54.33A1.86,1.86,0,0,1,349.6,296.76Z" style="fill:#407BFF"></path><path d="M302.32,319.51a7.61,7.61,0,0,1-5.51-2.5c-2.44-2.54-3.8-6.69-3.64-11.1.29-7.47,4.82-13.54,10.11-13.54a7.57,7.57,0,0,1,5.51,2.5c2.44,2.54,3.8,6.69,3.64,11.1C312.14,313.44,307.61,319.51,302.32,319.51Zm1-25.51c-4.42,0-8.23,5.37-8.48,12-.15,4,1,7.68,3.19,9.91a6,6,0,0,0,4.33,2c4.42,0,8.23-5.37,8.48-12h0c.15-4-1-7.68-3.19-9.91A6,6,0,0,0,303.28,294Z" style="fill:#407BFF"></path><path d="M331.41,319.51a7.59,7.59,0,0,1-5.5-2.5c-2.45-2.54-3.81-6.69-3.64-11.1.28-7.47,4.82-13.54,10.11-13.54a7.55,7.55,0,0,1,5.5,2.5c2.45,2.54,3.81,6.69,3.64,11.1h0C341.24,313.44,336.7,319.51,331.41,319.51Zm1-25.51c-4.43,0-8.23,5.37-8.48,12-.15,4,1,7.68,3.18,9.91a6,6,0,0,0,4.33,2c4.43,0,8.23-5.37,8.48-12,.15-4-1-7.68-3.18-9.91A6,6,0,0,0,332.38,294Zm8.33,11.94h0Z" style="fill:#407BFF"></path><ellipse cx="321.85" cy="187.7" rx="31.62" ry="21.79" transform="translate(111.39 495.14) rotate(-85.86)" style="fill:#407BFF"></ellipse><path d="M320.65,221.15A18.63,18.63,0,0,1,307.13,215c-6-6.26-9.38-16.5-9-27.37.7-18.41,11.86-33.38,24.88-33.38a18.6,18.6,0,0,1,13.52,6.14c6,6.27,9.39,16.5,9,27.38h0C344.83,206.17,333.67,221.15,320.65,221.15ZM323,158c-11,0-20.52,13.36-21.14,29.78-.38,9.88,2.59,19.09,7.93,24.64a15,15,0,0,0,10.82,5c11,0,20.52-13.36,21.14-29.78.38-9.88-2.58-19.09-7.92-24.64A15,15,0,0,0,323,158Zm20.62,29.71h0Z" style="fill:#fff"></path><path d="M307,187s8.3,8,11.66,18.28c2.9-8,7.23-19.21,17.54-31.76-12.47,8.28-17.22,18.67-17.22,18.67A25.47,25.47,0,0,0,307,187Z" style="fill:#fff"></path><path d="M318.11,406.93a6.4,6.4,0,0,1-4.68-2.09,10.68,10.68,0,0,1-2.69-7.84c.22-5.46,3.85-9.9,8.1-9.9a6.43,6.43,0,0,1,4.68,2.1A10.65,10.65,0,0,1,326.2,397h0C326,402.49,322.36,406.93,318.11,406.93Zm.73-18.77c-3.69,0-6.85,4-7,8.88a9.6,9.6,0,0,0,2.39,7.06,5.37,5.37,0,0,0,3.92,1.77c3.69,0,6.85-4,7-8.87a9.62,9.62,0,0,0-2.39-7.07A5.37,5.37,0,0,0,318.84,388.16Zm6.84,8.86h0Z" style="fill:#fff"></path><path d="M329.94,101.62a3,3,0,0,1-2.16-1,4.72,4.72,0,0,1-1.19-3.47c.09-2.42,1.73-4.39,3.65-4.39a3,3,0,0,1,2.16,1,4.71,4.71,0,0,1,1.2,3.47C333.51,99.65,331.86,101.62,329.94,101.62Zm.3-7.76c-1.36,0-2.53,1.51-2.6,3.37a3.74,3.74,0,0,0,.9,2.69,1.92,1.92,0,0,0,1.4.64c1.36,0,2.53-1.51,2.6-3.37a3.72,3.72,0,0,0-.9-2.7A1.93,1.93,0,0,0,330.24,93.86Z" style="fill:#fff"></path></g><g id="Character--inject-188"><path d="M188.7,124.25c-11.45-1.53-17.64,5.41-14.38,18,3.07,11.86-2.87,10.28-4,21.51s8.13,11.69,11.14,20.86,19.64,19.59,26.14,14.89,19.4-3.62,20.58-19.14-11.1-16.36-6.89-24.84c5.48-11-6.66-8.32-6.66-22.34C214.66,121.9,198.29,109.67,188.7,124.25Z" style="fill:#263238"></path><path d="M174.29,184c-.25,4.79-.69,9.42-1.39,14.13a78.45,78.45,0,0,1-3.19,14.34,22.88,22.88,0,0,1-1.78,3.93,10.92,10.92,0,0,1-1.79,2.32l-.35.32-.19.15-.11.09-.42.29-.83.58a45,45,0,0,1-6.65,3.52A76.38,76.38,0,0,1,144,228.17l-1.61-4.43c3.95-2.19,8-4.43,11.7-6.75a51.08,51.08,0,0,0,5.2-3.64l.54-.47.28-.23,0-.05h0l0,0s.11-.19.25-.48a17.92,17.92,0,0,0,.89-2.45,53.85,53.85,0,0,0,1.34-6.19c.38-2.16.69-4.37.95-6.6.51-4.44.95-9,1.29-13.43Z" style="fill:#ffb573"></path><path d="M145.33,223.84l-7.64-2.36,1.43,9.24s5-.62,7.41-3.41Z" style="fill:#ffb573"></path><path d="M131.45,227.43l.42,1.21a3.39,3.39,0,0,0,3.35,2.26l3.9-.18-1.43-9.24-4.29,1.68A3.39,3.39,0,0,0,131.45,227.43Z" style="fill:#ffb573"></path><path d="M183.32,175.07c0,2.89-1.4,8.58-2.59,12.86-.88,3.08-1.62,5.42-1.62,5.42l-1.75-.44-14.45-3.66c-.23-7.42.06-15.58,7.44-20.46C175,165.73,183.28,169.93,183.32,175.07Z" style="fill:#407BFF"></path><g style="opacity:0.5"><path d="M183.32,175.07c0,2.89-1.4,8.58-2.59,12.86-.88,3.08-1.62,5.42-1.62,5.42l-1.75-.44-14.45-3.66c-.23-7.42.06-15.58,7.44-20.46C175,165.73,183.28,169.93,183.32,175.07Z"></path></g><path d="M183.3,175.57c-.94-1-3.08-1.17-7.74.31-6.68,2.11-8.55,9.43-8.64,14.39l10.44,2.64.9.23.85.21s.37-1.17.89-2.95h0c.21-.73.47-1.57.72-2.47C181.86,183.89,183.18,178.57,183.3,175.57Z" style="opacity:0.30000000000000004"></path><polygon points="153.66 407.27 144.84 404.18 150.38 385.08 159.19 388.18 153.66 407.27" style="fill:#ffb573"></polygon><polygon points="271.48 384.64 264.31 389.98 249.62 375.09 256.79 369.74 271.48 384.64" style="fill:#ffb573"></polygon><path d="M261.37,387.81l7.75-6.41a.71.71,0,0,1,.94,0l5.95,5.4a1.43,1.43,0,0,1-.09,2.14c-2.74,2.19-4.18,3.11-7.58,5.92-2.1,1.73-6.48,5.87-9.38,8.26s-5.42-.34-4.42-1.6c4.44-5.62,5.47-9.32,6-12.36A2.32,2.32,0,0,1,261.37,387.81Z" style="fill:#263238"></path><path d="M144.24,401.43l9.8,4.09a.89.89,0,0,1,.52.92l-1.11,8.64a1.32,1.32,0,0,1-1.84,1.05c-3.47-1.41-5.1-2.11-9.4-3.91L129,406.72c-3.58-1.5-2.81-5.43-1.19-5.14,7.25,1.31,11.92.88,14.78-.2A2.19,2.19,0,0,1,144.24,401.43Z" style="fill:#263238"></path><polygon points="150.38 385.09 147.53 394.93 156.11 398.81 159.2 388.18 150.38 385.09" style="opacity:0.2"></polygon><polygon points="256.8 369.74 249.62 375.09 257.19 382.77 264.37 377.42 256.8 369.74" style="opacity:0.2"></polygon><path d="M210.44,221.77l-36.33.52c-5-28.12-6.15-41.55-6.15-48a6.93,6.93,0,0,1,5.59-6.82c2.22-.43,5-.93,7.75-1.31.95-.13,1.91-.25,2.85-.35a114.68,114.68,0,0,1,16.49-.24c.82,0,1.63.07,2.44.12,3.68.24,7.14.71,9.57,1.09a3.33,3.33,0,0,1,2.73,4c-1.06,5-1.93,9.39-2.63,13.32-1.11,6.25-1.81,11.3-2.22,15.73A137.24,137.24,0,0,0,210.44,221.77Z" style="fill:#407BFF"></path><g style="opacity:0.5"><path d="M210.44,221.77l-36.33.52c-5-28.12-6.15-41.55-6.15-48a6.93,6.93,0,0,1,5.59-6.82c2.22-.43,5-.93,7.75-1.31.95-.13,1.91-.25,2.85-.35a114.68,114.68,0,0,1,16.49-.24c.82,0,1.63.07,2.44.12,3.68.24,7.14.71,9.57,1.09a3.33,3.33,0,0,1,2.73,4c-1.06,5-1.93,9.39-2.63,13.32-1.11,6.25-1.81,11.3-2.22,15.73A137.24,137.24,0,0,0,210.44,221.77Z"></path></g><path d="M210.53,199.86c-1.83-5.48-1.73-16.86.24-20.55l2,4.82C211.64,190.38,210.94,195.43,210.53,199.86Z" style="opacity:0.30000000000000004"></path><path d="M197.93,154.34c-.17,4.46.36,9.09,2.72,11.27,0,0-3.9,5.09-13.08,10.09-4.86-4.68-3.42-9.85-3.42-9.85,5.9-1.5,6-5.43,4.27-11.95L193.1,152A2.91,2.91,0,0,1,197.93,154.34Z" style="fill:#ffb573"></path><path d="M193.11,152a2.91,2.91,0,0,1,4.81,1.91,18,18,0,0,1-8.62,7,19.26,19.26,0,0,0-.88-7.06Z" style="opacity:0.2"></path><path d="M206.38,141.24c-3.16,8.3-4.33,11.87-10,14.88-8.47,4.52-18-1.18-17.34-10.26.56-8.17,5.64-20.36,15-21.14A12.11,12.11,0,0,1,206.38,141.24Z" style="fill:#ffb573"></path><path d="M190.49,124.68c-5.89,8.31,11,6.27,10.16,12.13-.49,3.56-5.57,10.19,3.35,11.43s11.13-13.32,6.54-18.79S196.28,120.43,190.49,124.68Z" style="fill:#263238"></path><path d="M192.36,124.43c-1.22,3-7.71,7.11-10.08,6.35C183,127.19,189.05,123.78,192.36,124.43Z" style="fill:#263238"></path><path d="M205.84,149.71a6.51,6.51,0,0,1-4,2.93c-2.22.52-3.23-1.48-2.54-3.53.62-1.83,2.53-4.32,4.71-3.93A2.91,2.91,0,0,1,205.84,149.71Z" style="fill:#ffb573"></path><path d="M174.11,222.29s-6.15,52.88-11.82,85.8c-4.44,25.79-15.66,79.49-15.66,79.49l14.56,5.16s16.68-56,19.6-79.88C192.55,278.4,201,222,201,222Z" style="fill:#407BFF"></path><polygon points="144.26 391.21 161.12 397.15 163.37 391.74 145.09 384.75 144.26 391.21" style="fill:#263238"></polygon><path d="M192.52,238l-5.44,10.43c-2,7.86-1.52,27,1,39.09,4.53-18.23,8.15-37.41,10.4-50.28Z" style="opacity:0.30000000000000004"></path><path d="M182,222.29s6.51,59.18,18.66,92c6.09,16.49,51.3,65.34,51.3,65.34l10.2-8.16s-28.67-49.29-41.2-62.17c-5.11-28.63,1.31-71.5-10.56-87.55Z" style="fill:#407BFF"></path><polygon points="252.83 383.17 264.79 373.36 261.56 368.06 248.46 379.46 252.83 383.17" style="fill:#263238"></polygon><path d="M211,219.64l1.68,3.22c.13.25-.16.52-.58.52l-38.11.55c-.33,0-.6-.16-.63-.36l-.37-3.25c0-.22.26-.42.61-.42l36.8-.53A.67.67,0,0,1,211,219.64Z" style="fill:#263238"></path><path d="M206.07,223.82h1c.19,0,.34-.11.33-.23l-.53-4.22c0-.13-.18-.22-.38-.22h-1c-.19,0-.34.11-.32.23l.52,4.22C205.7,223.72,205.88,223.82,206.07,223.82Z" style="fill:#407BFF"></path><path d="M176.72,224.24h1c.2,0,.34-.11.33-.23l-.52-4.22c0-.13-.19-.23-.39-.22h-1c-.2,0-.35.11-.33.23l.52,4.22C176.35,224.14,176.53,224.24,176.72,224.24Z" style="fill:#407BFF"></path><path d="M191.4,224h1c.2,0,.35-.11.33-.23l-.52-4.22c0-.13-.19-.23-.38-.22h-1c-.2,0-.34.11-.33.23l.52,4.22C191,223.93,191.2,224,191.4,224Z" style="fill:#407BFF"></path><path d="M191.78,139.21c-.21.69-.75,1.13-1.2,1s-.64-.81-.43-1.5.76-1.14,1.21-1S192,138.52,191.78,139.21Z" style="fill:#263238"></path><path d="M184,136.77c-.22.69-.76,1.13-1.21,1s-.64-.81-.42-1.5.75-1.13,1.2-1S184.21,136.08,184,136.77Z" style="fill:#263238"></path><path d="M183.76,135.37l-1.5-1S182.7,135.93,183.76,135.37Z" style="fill:#263238"></path><path d="M185.92,138.59a19.13,19.13,0,0,1-3.83,3.63,3.13,3.13,0,0,0,2.31,1.23Z" style="fill:#ed893e"></path><path d="M186.7,147.27a.2.2,0,0,1-.07-.23.22.22,0,0,1,.27-.14,5.69,5.69,0,0,0,5.11-.74.21.21,0,1,1,.27.33,6.07,6.07,0,0,1-5.51.82Z" style="fill:#263238"></path><path d="M194.77,137.35a.46.46,0,0,1-.13-.18,3.35,3.35,0,0,0-2.16-2.16.43.43,0,0,1-.32-.51.43.43,0,0,1,.51-.32,4.22,4.22,0,0,1,2.77,2.7.43.43,0,0,1-.25.55A.45.45,0,0,1,194.77,137.35Z" style="fill:#263238"></path><path d="M181.68,132.3s0-.05,0-.07a.42.42,0,0,1,.34-.49,4.2,4.2,0,0,1,3.72,1.06.42.42,0,0,1,0,.6.43.43,0,0,1-.6,0,3.36,3.36,0,0,0-3-.81A.42.42,0,0,1,181.68,132.3Z" style="fill:#263238"></path><path d="M147.18,171.8c-1.48-2.39-2.76-7.06-.23-9.7s4.5-3.39,3.87-8,6.41-4.48,7-8c3.51,3,7.23,10,5.24,13.21s-.92,5.62-1.35,9.51S152.78,180.86,147.18,171.8Z" style="fill:#407BFF"></path><path d="M147.18,171.8c-1.48-2.39-2.76-7.06-.23-9.7s4.5-3.39,3.87-8,6.41-4.48,7-8c3.51,3,7.23,10,5.24,13.21s-.92,5.62-1.35,9.51S152.78,180.86,147.18,171.8Z" style="fill:#fff;opacity:0.5"></path><path d="M158.11,153.51c-1.7,10.68-4.83,23.15-9.32,32.42a4.61,4.61,0,0,0,2.89-1.34S158.79,165.28,158.11,153.51Z" style="fill:#407BFF"></path><path d="M143.81,177.05c-2.25-1.68-5.15-5.55-3.78-8.94s2.94-4.81.65-8.87,4.32-6.54,3.57-10c4.39,1.54,10.42,6.67,9.73,10.35s1.21,5.57,2.24,9.34S152.36,183.41,143.81,177.05Z" style="fill:#407BFF"></path><path d="M143.81,177.05c-2.25-1.68-5.15-5.55-3.78-8.94s2.94-4.81.65-8.87,4.32-6.54,3.57-10c4.39,1.54,10.42,6.67,9.73,10.35s1.21,5.57,2.24,9.34S152.36,183.41,143.81,177.05Z" style="fill:#fff;opacity:0.6000000000000001"></path><path d="M159.88,180.27c2.36-.17,6.19-1.6,6.76-4.64s.1-4.76,3.58-6.61-.1-6.61,2-8.73c-3.82-.9-10.44,0-11.64,2.94s-3.39,3.4-5.84,5.62S150.9,180.91,159.88,180.27Z" style="fill:#407BFF"></path><path d="M159.88,180.27c2.36-.17,6.19-1.6,6.76-4.64s.1-4.76,3.58-6.61-.1-6.61,2-8.73c-3.82-.9-10.44,0-11.64,2.94s-3.39,3.4-5.84,5.62S150.9,180.91,159.88,180.27Z" style="fill:#fff;opacity:0.7000000000000001"></path><path d="M146.73,160.39c1.79,9.35,2.65,20.48,1,29.16a4.42,4.42,0,0,0,2.67-1.68S151.45,170.22,146.73,160.39Z" style="fill:#407BFF"></path><path d="M165.42,165.5c-6.26,6.86-12.95,15.63-16.76,23.61a4,4,0,0,1-.65-2.66S157.16,171.34,165.42,165.5Z" style="fill:#407BFF"></path><path d="M137.18,174.88c-2.83-1.55-8.42,2.78-5.48,7.81s9,7.36,11.8,4.66c3.86-.69,5.54-6.93,3.22-12.27S137.61,171.68,137.18,174.88Z" style="fill:#407BFF"></path><path d="M137.18,174.88s-1-3.25.65-4.29a9.26,9.26,0,0,1,.62.88S137.33,171.78,137.18,174.88Z" style="fill:#263238"></path><path d="M169.17,166.4c-.34,6.87-7.4,12.09-15.07,13.77a4.07,4.07,0,0,0-1,1.73.71.71,0,0,0,.24.86,4.94,4.94,0,0,0,2,1,16.78,16.78,0,0,0,11.12-3.86c4-3.06,7.65-9.12,6.5-11.93s-2.06-1.87-2.5-4a8.43,8.43,0,0,1-.31-2.66s-1,.47-1.25,1.08C169.23,163.25,169.28,164.16,169.17,166.4Z" style="fill:#407BFF"></path><path d="M173,168a5.22,5.22,0,0,0-1.26-2c.08,2.26-.5,5-3,9-2.61,4.18-9.61,7.9-15.65,7.53a.63.63,0,0,0,.21.24,4.94,4.94,0,0,0,2,1,16.77,16.77,0,0,0,11.12-3.86C170.43,176.88,174.11,170.82,173,168Z" style="opacity:0.2"></path><path d="M169.19,163.8a15.43,15.43,0,0,0-.52-1.52,3.45,3.45,0,0,1,1.6-1.15l0,1.65S169.72,163.73,169.19,163.8Z" style="fill:#263238"></path><path d="M153.34,181.22a6.09,6.09,0,0,0-.43.53,1,1,0,0,0,.34,1.12.68.68,0,0,0,.48.21,3.23,3.23,0,0,1-.42-1A7.18,7.18,0,0,1,153.34,181.22Z" style="fill:#263238"></path><path d="M174.67,169.5c-1.77,6.64-9.76,10.27-17.62,10.31a4,4,0,0,0-1.37,1.47.72.72,0,0,0,0,.9,4.87,4.87,0,0,0,1.79,1.44c.8.21,5.53,1.52,11.68-1.44,4.51-2.18,9.38-7.33,8.85-10.31s-1.63-2.26-1.61-4.42a7.94,7.94,0,0,1,.25-2.66,3,3,0,0,0-1.45.78C175.38,166.42,175.24,167.33,174.67,169.5Z" style="fill:#407BFF"></path><path d="M178.05,171.87a5.29,5.29,0,0,0-.81-2.24c-.4,2.23-1.54,4.82-4.79,8.17-3.42,3.54-11,5.73-16.87,4.1a.68.68,0,0,0,.15.28,5,5,0,0,0,1.79,1.44c.8.21,5.53,1.51,11.68-1.45C173.71,180,178.58,174.85,178.05,171.87Z" style="opacity:0.2"></path><path d="M175.23,167s-.09-1.17-.19-1.59a3.52,3.52,0,0,1,1.8-.79l-.36,1.61S175.76,167,175.23,167Z" style="fill:#263238"></path><path d="M156.09,180.68s-.35.26-.53.43a1,1,0,0,0,.1,1.16c.24.3.43.31.43.31a3.23,3.23,0,0,1-.21-1.06C155.94,181.18,156.09,180.68,156.09,180.68Z" style="fill:#263238"></path><rect x="134.03" y="180.04" width="49.27" height="55.15" transform="translate(-26.78 23.52) rotate(-7.82)" style="fill:#407BFF"></rect><rect x="134.03" y="180.04" width="49.27" height="55.15" transform="translate(-26.78 23.52) rotate(-7.82)" style="fill:#fff;opacity:0.8"></rect><rect x="168.6" y="177.68" width="14.54" height="55.15" transform="translate(-26.3 25.84) rotate(-7.82)" style="fill:#407BFF;opacity:0.2"></rect><polygon points="186.83 231.58 178.9 227.32 172.12 177.94 179.32 176.95 186.83 231.58" style="fill:#407BFF;opacity:0.2"></polygon><polygon points="178.9 227.32 172.42 233.56 186.83 231.58 178.9 227.32" style="fill:#407BFF;opacity:0.30000000000000004"></polygon><path d="M194.7,223.92,187.26,221l.73,9.32s5-.24,7.65-2.85Z" style="fill:#ffb573"></path><path d="M218.17,177.47c2,5.6,3.72,11.16,5.2,16.92.74,2.87,1.44,5.76,2,8.76.27,1.49.51,3,.69,4.58a32.55,32.55,0,0,1,.21,5,13.13,13.13,0,0,1-.5,3.2,9.2,9.2,0,0,1-2,3.45,15.92,15.92,0,0,1-4.67,3.44,41.2,41.2,0,0,1-9,3.15,94.16,94.16,0,0,1-17.73,2.37l-.58-4.68c2.72-.65,5.51-1.37,8.22-2.13s5.41-1.6,8-2.55a39.57,39.57,0,0,0,7.11-3.25,8.44,8.44,0,0,0,2.17-1.82c.16-.25.16-.32.13-.32a7.89,7.89,0,0,0,0-1.1,26.63,26.63,0,0,0-.38-3.6c-.2-1.3-.47-2.63-.77-4-.63-2.67-1.32-5.39-2.1-8.11-1.56-5.4-3.31-10.89-5.07-16.22Z" style="fill:#ffb573"></path><path d="M180.36,225.6l.58,2.16a3.3,3.3,0,0,0,3.1,2.44l4,.11-.73-9.32-4.08.47A3.31,3.31,0,0,0,180.36,225.6Z" style="fill:#ffb573"></path><path d="M213.93,167.05c4.18,1.7,7.6,15.44,7.6,15.44l-11.55,9s-8.18-12.81-6.51-18.37C204.89,168.43,208.61,164.9,213.93,167.05Z" style="fill:#407BFF"></path><g style="opacity:0.5"><path d="M213.93,167.05c4.18,1.7,7.6,15.44,7.6,15.44l-11.55,9s-8.18-12.81-6.51-18.37C204.89,168.43,208.61,164.9,213.93,167.05Z"></path></g><path d="M258.54,391.69h-.15a1.2,1.2,0,0,1-1-.65.73.73,0,0,1-.06-.73c.51-1,3.72-1.4,4.08-1.44a.2.2,0,0,1,.21.11.21.21,0,0,1,0,.23C260.94,390.12,259.64,391.61,258.54,391.69Zm2.43-2.33c-1.28.19-3,.6-3.24,1.14a.3.3,0,0,0,0,.32.76.76,0,0,0,.65.44C259,391.29,260,390.59,261,389.36Z" style="fill:#263238"></path><path d="M261.26,389.32c-1.09.07-3.25-.38-3.71-1.22a.74.74,0,0,1,.18-.91,1.11,1.11,0,0,1,.87-.35c1.3,0,2.95,2,3,2.11a.18.18,0,0,1,0,.2.19.19,0,0,1-.16.14Zm-2.76-2.06a.72.72,0,0,0-.46.22c-.19.2-.16.33-.11.42.29.55,2,1,3.09,1-.59-.63-1.66-1.62-2.43-1.65Z" style="fill:#263238"></path><path d="M139.22,401.23A3.59,3.59,0,0,1,137.5,400a1.32,1.32,0,0,1-.1-1.15.63.63,0,0,1,.47-.43c1.14-.22,3.84,2.68,4.37,3.27a.21.21,0,0,1,0,.24.22.22,0,0,1-.23.11A14.77,14.77,0,0,1,139.22,401.23Zm-.85-2.34a.79.79,0,0,0-.42-.08s-.11,0-.15.15a.9.9,0,0,0,.07.8c.39.67,1.72,1.3,3.61,1.71A13.36,13.36,0,0,0,138.37,398.89Z" style="fill:#263238"></path><path d="M142,402a.18.18,0,0,1-.07-.05c-.92-.91-2.4-3.63-1.89-4.5.12-.19.36-.39.89-.24,2,.58,1.39,4.46,1.36,4.63a.19.19,0,0,1-.15.16A.17.17,0,0,1,142,402ZM141,397.66l-.14,0c-.21-.06-.35-.05-.4,0-.3.51.65,2.56,1.52,3.65C142,400.35,142.12,398.15,141,397.66Z" style="fill:#263238"></path><path d="M191.55,137.81l-1.51-1S190.49,138.37,191.55,137.81Z" style="fill:#263238"></path></g></svg>
